<svg xmlns="http://www.w3.org/2000/svg" fill="none" viewBox="0 0 128 128">
    <g clip-path="url(#clip0_1701_12)">
        <path
            d="M88.8217 64.0049H64.8894V87.9373H88.8217V64.0049ZM40.9459 40.0596C54.1542 40.0596 64.8779 50.7834 64.8779 63.9916H40.9459V40.0596ZM40.9458 64.0049L27.1289 87.9373H54.7627L40.9458 64.0049ZM88.9103 63.9843C95.5148 63.9843 100.868 58.6301 100.868 52.0256C100.868 45.4213 95.5148 40.0673 88.9103 40.0673C82.3059 40.0673 76.9517 45.4213 76.9517 52.0256C76.9517 58.6301 82.3059 63.9843 88.9103 63.9843Z"
            fill="#FFFF00" />
        <path
            d="M64 127.998C46.9051 127.998 30.8328 121.342 18.7454 109.253C6.65618 97.1653 0 81.0932 0 63.9982C0 46.9031 6.65618 30.8328 18.7454 18.7454C30.8328 6.65618 46.9051 0 64 0C81.095 0 97.1672 6.65618 109.254 18.7454C121.342 30.8328 128 46.9051 128 64C128 81.095 121.344 97.1672 109.254 109.254C97.1672 121.342 81.095 128 64 128V127.998ZM64 7.92921C49.0236 7.92921 34.9429 13.761 24.3539 24.352C13.7649 34.9429 7.93115 49.0218 7.93115 63.9982C7.93115 78.9742 13.763 93.0554 24.3539 103.644C34.9448 114.235 49.0236 120.067 64 120.067C78.9766 120.067 93.0572 114.235 103.646 103.644C114.235 93.0536 120.069 78.9742 120.069 63.9982C120.069 49.0218 114.237 34.941 103.646 24.352C93.0554 13.763 78.9766 7.92921 64 7.92921Z"
            fill="#FFFF00" />
    </g>
</svg>